<?xml version="1.0" standalone="no"?>
<!DOCTYPE svg PUBLIC "-//W3C//DTD SVG 20010904//EN"
 "http://www.w3.org/TR/2001/REC-SVG-20010904/DTD/svg10.dtd">
<svg version="1.0" xmlns="http://www.w3.org/2000/svg"
 width="512.000000pt" height="512.000000pt" viewBox="0 0 512.000000 512.000000"
 preserveAspectRatio="xMidYMid meet">

<g transform="translate(0.000000,512.000000) scale(0.100000,-0.100000)" stroke="none">
<path d="M1205 4670 c-261 -69 -450 -251 -535 -515 -19 -59 -23 -100 -28 -254
-5 -214 1 -238 69 -265 37 -15 39 -18 39 -59 0 -53 33 -174 64 -236 14 -26 45
-74 69 -106 25 -33 43 -63 41 -67 -2 -3 -95 -62 -206 -130 -156 -95 -219 -140
-278 -198 -120 -118 -195 -267 -220 -436 -5 -39 -10 -321 -10 -652 0 -613 1
-625 45 -662 15 -13 100 -16 574 -20 l556 -5 5 -293 5 -294 28 -24 28 -24
1109 0 1109 0 28 24 28 24 5 294 5 293 556 5 c531 5 558 6 578 24 12 11 26 35
32 55 7 24 9 236 7 656 -4 610 -4 621 -27 695 -47 155 -130 287 -239 377 -31
27 -144 101 -250 167 -105 65 -194 121 -196 125 -2 3 16 33 41 66 24 32 56 81
69 108 30 59 64 185 64 239 0 35 3 39 39 54 68 27 74 51 69 265 -5 154 -9 195
-28 254 -78 244 -249 421 -485 501 -64 22 -104 28 -201 32 -147 5 -245 -16
-374 -80 -69 -34 -103 -60 -180 -138 -78 -77 -104 -111 -138 -180 -50 -101
-82 -219 -82 -305 l0 -63 -87 44 c-116 59 -220 84 -343 84 -123 0 -227 -25
-342 -84 l-88 -44 0 63 c0 86 -32 204 -82 305 -34 69 -60 103 -138 180 -77 78
-111 104 -180 138 -47 23 -121 51 -164 62 -104 26 -263 26 -361 0z m304 -205
c93 -22 177 -71 251 -145 110 -110 160 -233 160 -399 l0 -83 -37 6 c-79 14
-142 37 -189 68 -51 34 -94 96 -94 136 0 63 -65 119 -123 108 -16 -3 -60 -30
-96 -59 -159 -129 -327 -211 -495 -243 l-39 -7 6 100 c4 55 13 119 20 144 84
277 359 439 636 374z m2405 -18 c163 -60 281 -187 333 -357 7 -25 16 -91 20
-147 7 -117 13 -111 -85 -88 -134 32 -232 110 -232 185 0 40 -31 88 -66 105
-48 23 -84 12 -147 -42 -118 -101 -272 -184 -422 -228 -48 -14 -93 -25 -101
-25 -19 0 -19 134 1 218 45 190 202 349 393 397 84 21 219 13 306 -18z m-2407
-645 c75 -75 159 -123 250 -143 l55 -13 -4 -68 c-10 -132 -107 -272 -232 -333
-241 -118 -532 17 -602 279 -8 28 -14 67 -14 87 l0 36 99 32 c109 34 248 100
326 155 28 19 51 35 52 35 1 1 33 -30 70 -67z m2351 -2 c76 -75 155 -120 250
-142 47 -12 52 -15 52 -40 0 -100 -55 -222 -135 -297 -169 -160 -423 -159
-589 3 -71 69 -117 164 -124 254 l-4 69 101 33 c109 35 237 96 323 154 29 20
53 36 53 36 1 0 33 -32 73 -70z m-1182 25 c125 -29 232 -98 308 -199 75 -99
106 -196 106 -335 l0 -93 -87 7 c-293 23 -507 101 -542 197 -30 79 -40 95 -70
108 -40 16 -92 6 -119 -23 -12 -13 -26 -47 -32 -75 -12 -64 -23 -87 -63 -130
-24 -25 -116 -72 -142 -72 -11 0 -4 179 9 225 75 283 355 456 632 390z m-174
-720 c88 -42 235 -80 378 -98 l105 -13 -3 -45 c-9 -152 -121 -302 -269 -360
-46 -18 -78 -23 -153 -23 -114 0 -184 24 -263 88 -96 78 -148 176 -163 304 -5
51 -4 62 8 62 32 0 136 62 182 109 l49 50 28 -20 c15 -10 61 -35 101 -54z
m-664 -75 c10 -14 33 -29 50 -35 27 -8 32 -14 32 -40 1 -107 73 -290 149 -377
l41 -46 -168 -103 c-235 -145 -259 -161 -328 -229 l-62 -61 126 503 c116 464
127 500 134 458 4 -25 16 -56 26 -70z m1605 -393 l124 -497 -55 56 c-53 55
-152 123 -388 269 l-111 69 50 66 c28 36 62 92 77 125 29 63 60 184 60 232 0
24 6 31 32 38 40 13 68 51 75 104 3 23 7 40 9 39 1 -2 59 -227 127 -501z
m-2058 353 c44 0 97 4 118 9 22 5 37 5 37 0 0 -9 -136 -578 -147 -614 -5 -17
-162 572 -163 611 0 9 11 9 38 3 20 -5 73 -9 117 -9z m2350 1 c44 0 97 3 118
8 37 9 39 8 33 -12 -3 -12 -38 -156 -78 -320 -48 -199 -75 -293 -80 -280 -4
10 -39 146 -78 303 -39 157 -73 292 -76 301 -4 14 1 15 38 8 24 -4 79 -8 123
-8z m552 -128 c257 -158 333 -236 382 -397 20 -66 21 -88 21 -627 l0 -559
-425 0 -425 0 0 313 -1 312 133 533 c73 292 134 532 136 532 2 0 83 -48 179
-107z m-3138 -435 l131 -533 0 -307 0 -308 -425 0 -425 0 0 553 c0 609 0 613
63 731 51 97 123 160 322 284 99 61 185 111 192 112 7 0 62 -208 142 -532z
m1310 -68 c73 -14 143 -12 221 4 36 8 66 13 67 12 1 -1 -12 -56 -29 -124 l-30
-122 -128 0 -128 0 -26 108 c-15 59 -29 115 -32 125 -5 15 -2 18 13 13 10 -3
42 -10 72 -16z m-151 -622 l143 -573 -1 -262 0 -263 -425 0 -426 0 3 567 c3
564 3 568 26 632 43 120 118 213 226 283 l61 39 3 -292 2 -292 -43 -46 c-87
-93 -84 -215 7 -299 76 -70 170 -79 258 -23 54 34 98 113 98 175 0 54 -40 138
-79 167 l-31 23 0 362 c0 358 1 369 30 373 3 1 69 -257 148 -571z m666 566
c14 -5 16 -42 16 -309 l0 -303 -53 -30 c-64 -36 -101 -78 -136 -152 -24 -52
-26 -65 -29 -245 -4 -217 2 -256 51 -285 39 -24 68 -25 108 -4 51 26 59 61 59
269 l0 187 29 29 c32 31 79 38 124 18 47 -21 52 -41 57 -256 5 -196 6 -202 29
-227 50 -53 145 -39 171 24 7 18 10 98 8 241 -3 203 -4 217 -27 263 -29 59
-86 118 -141 146 l-40 20 0 235 c0 129 2 235 6 235 3 0 32 -18 65 -40 82 -56
143 -122 184 -201 64 -121 65 -134 65 -736 l0 -543 -425 0 -425 0 0 263 -1
262 143 573 c79 314 144 572 145 572 1 0 8 -3 17 -6z m-373 -529 c-19 -80 -38
-145 -41 -145 -3 0 -22 65 -41 145 l-36 145 77 0 77 0 -36 -145z"/>
</g>
</svg>
